<svg width="24" height="24" viewBox="0 0 24 24" fill="none" xmlns="http://www.w3.org/2000/svg">
<path d="M5.96852 1.83565C6.29197 1.57689 6.34441 1.10492 6.08565 0.781476C5.82689 0.458029 5.35493 0.405588 5.03148 0.664345L2.53148 2.66435C2.20803 2.9231 2.15559 3.39507 2.41435 3.71852C2.67311 4.04196 3.14507 4.09441 3.46852 3.83565L5.96852 1.83565Z" fill="#FAFAFA"/>
<path d="M18.9685 0.664345C18.6451 0.405588 18.1731 0.458029 17.9143 0.781476C17.6556 1.10492 17.708 1.57689 18.0315 1.83565L20.5315 3.83565C20.8549 4.09441 21.3269 4.04196 21.5857 3.71852C21.8444 3.39507 21.792 2.9231 21.4685 2.66435L18.9685 0.664345Z" fill="#FAFAFA"/>
<path d="M12.75 8C12.75 7.58578 12.4142 7.25 12 7.25C11.5858 7.25 11.25 7.58578 11.25 8L11.25 10.7254C11.25 11.2593 11.25 11.7133 11.2871 12.0901C11.3267 12.4915 11.4125 12.8636 11.6184 13.2203C11.8244 13.577 12.1037 13.8373 12.4315 14.0723C12.7393 14.2929 13.1325 14.5199 13.5949 14.7868L14.2232 15.1495C14.5819 15.3566 15.0406 15.2337 15.2477 14.875C15.4548 14.5163 15.3319 14.0576 14.9731 13.8505L14.375 13.5052C13.8744 13.2161 13.5459 13.0255 13.3054 12.8531C13.0782 12.6903 12.9795 12.5777 12.9175 12.4703C12.8555 12.3629 12.8073 12.2211 12.7799 11.943C12.7508 11.6484 12.75 11.2687 12.75 10.6906L12.75 8Z" fill="#FAFAFA"/>
<path fill-rule="evenodd" clip-rule="evenodd" d="M12 1.25C6.06294 1.25 1.25 6.06294 1.25 12C1.25 17.9371 6.06294 22.75 12 22.75C17.9371 22.75 22.75 17.9371 22.75 12C22.75 6.06294 17.9371 1.25 12 1.25ZM2.75 12C2.75 6.89136 6.89137 2.75 12 2.75C17.1086 2.75 21.25 6.89136 21.25 12C21.25 17.1086 17.1086 21.25 12 21.25C6.89137 21.25 2.75 17.1086 2.75 12Z" fill="#FAFAFA"/>
</svg>
