<svg width="24" height="24" viewBox="0 0 24 24" fill="none" xmlns="http://www.w3.org/2000/svg">
<path fill-rule="evenodd" clip-rule="evenodd" d="M14.0227 4.72266L14.1127 4.77466C14.8909 5.22387 15.5397 5.59846 16.0148 5.9651C16.5163 6.3521 16.9143 6.79629 17.0811 7.41848C17.2478 8.04066 17.1252 8.62436 16.8844 9.21025C16.6562 9.76532 16.2816 10.4142 15.8323 11.1922L11.9568 17.905C11.6599 18.4202 11.4251 18.8277 11.0677 19.1347C10.7104 19.4418 10.2722 19.6126 9.71809 19.8285L9.56835 19.887C8.54013 20.2887 7.69257 20.6199 6.99851 20.782C6.27263 20.9516 5.57176 20.9727 4.91849 20.5956C4.26522 20.2184 3.93306 19.6009 3.71699 18.8875C3.51039 18.2053 3.37341 17.3057 3.20723 16.2144L3.18297 16.0555C3.09294 15.4676 3.02175 15.0028 3.10899 14.5398C3.11989 14.4819 3.13311 14.4249 3.14848 14.3684C3.25606 13.9733 3.46891 13.6054 3.72947 13.1549L7.60509 6.44225C8.0543 5.66412 8.42889 5.01527 8.79553 4.54016C9.18253 4.03867 9.62672 3.64065 10.2489 3.47393C10.8711 3.30722 11.4548 3.42982 12.0407 3.67062C12.5958 3.89876 13.2446 4.27339 14.0227 4.72266ZM8.50313 7.8868L14.1323 11.1368L10.7089 17.0664C10.3359 17.7123 10.2293 17.8775 10.0902 17.997C9.95108 18.1165 9.77174 18.1971 9.07696 18.4685C7.98049 18.8969 7.23373 19.1867 6.65725 19.3214C6.10038 19.4515 5.84769 19.4 5.66849 19.2965C5.48929 19.1931 5.31836 19 5.1526 18.4527C4.981 17.8861 4.85857 17.0945 4.68132 15.9307C4.56901 15.1933 4.5491 14.9977 4.58305 14.8175C4.61701 14.6373 4.70673 14.4623 5.07969 13.8164L8.50313 7.8868ZM15.497 8.64003C15.3645 8.96246 15.1618 9.34159 14.8807 9.83685L9.2547 6.58867C9.54308 6.09763 9.77007 5.73255 9.98305 5.45656C10.2675 5.08795 10.4591 4.97052 10.6371 4.92282C10.8152 4.87512 11.0398 4.88101 11.4705 5.05801C11.9213 5.24329 12.4829 5.56569 13.3177 6.0477C14.1526 6.5297 14.7126 6.85486 15.0984 7.15262C15.467 7.43708 15.5845 7.62869 15.6322 7.8067C15.6799 7.98472 15.674 8.20937 15.497 8.64003Z" fill="#FAFAFA"/>
<path d="M12.6597 20.2509C12.6597 19.8367 12.9955 19.5009 13.4097 19.5009H19.4097C19.8239 19.5009 20.1597 19.8367 20.1597 20.2509C20.1597 20.6652 19.8239 21.0009 19.4097 21.0009H13.4097C12.9955 21.0009 12.6597 20.6652 12.6597 20.2509Z" fill="#FAFAFA"/>
</svg>
