<svg width="24" height="24" viewBox="0 0 24 24" fill="none" xmlns="http://www.w3.org/2000/svg">
<path fill-rule="evenodd" clip-rule="evenodd" d="M18.955 3.23746C19.7769 4.05936 20.0663 5.21123 19.824 6.26596C21.4668 6.42856 22.75 7.81443 22.75 9.50001C22.75 10.4402 22.3508 11.2872 21.7126 11.8806C21.75 12.475 21.75 13.0253 21.75 14.1147V14.1696C21.75 15.3672 21.75 16.3028 21.7008 17.0577C21.6509 17.8243 21.548 18.4576 21.3169 19.0422C20.739 20.5036 19.6262 21.6756 18.212 22.2893C17.6426 22.5364 17.0269 22.6455 16.2893 22.6983C15.5652 22.75 14.6694 22.75 13.5292 22.75H10.4709C9.33069 22.75 8.43481 22.75 7.71075 22.6983C6.97308 22.6455 6.3574 22.5364 5.78803 22.2893C4.37384 21.6756 3.26097 20.5036 2.68314 19.0422C2.45201 18.4576 2.34909 17.8243 2.29916 17.0577C2.25 16.3028 2.25 15.3673 2.25 14.1696V14.1429C2.25 13.6672 2.24052 13.2839 2.23223 12.9486C2.22181 12.5272 2.21327 12.1816 2.22777 11.8237C1.62445 11.2337 1.25 10.4106 1.25 9.50001C1.25 7.76203 2.61421 6.34268 4.33023 6.25437C4.09267 5.2028 4.38303 4.05636 5.20192 3.23747C6.47112 1.96827 8.52891 1.96827 9.79811 3.23747L11.9194 5.35879C11.9748 5.41419 12.0278 5.47113 12.0784 5.52947C12.129 5.47113 12.182 5.41418 12.2374 5.35878L14.3588 3.23746C15.628 1.96825 17.6857 1.96825 18.955 3.23746ZM15.4194 4.29812C16.1028 3.6147 17.2109 3.6147 17.8943 4.29812C18.4218 4.8256 18.5424 5.60706 18.2551 6.25001H13.4675L15.4194 4.29812ZM8.73745 4.29813L10.6893 6.25001H5.90175C5.61448 5.60706 5.7351 4.8256 6.26258 4.29813C6.94599 3.61471 8.05403 3.61471 8.73745 4.29813ZM2.75 9.50001C2.75 8.53351 3.5335 7.75001 4.5 7.75001H11.25V11.25H4.5C3.5335 11.25 2.75 10.4665 2.75 9.50001ZM12.75 21L12.75 12.75H19.5C19.7555 12.75 20.0042 12.7205 20.2427 12.6648C20.2499 13.0336 20.25 13.4828 20.25 14.1429C20.25 15.373 20.2496 16.2597 20.204 16.9602C20.1588 17.6545 20.0714 18.1126 19.9219 18.4907C19.4848 19.5962 18.651 20.4637 17.6149 20.9133C17.2654 21.0649 16.8392 21.1551 16.1823 21.2021C15.518 21.2496 14.6756 21.25 13.5 21.25H12.7073C12.735 21.1718 12.75 21.0877 12.75 21ZM11.25 21L11.25 12.75H4.5C4.23329 12.75 3.97408 12.7179 3.72603 12.6573L3.72973 12.7957C3.73873 13.1282 3.75 13.5443 3.75 14.1429C3.75 15.373 3.75037 16.2597 3.79599 16.9602C3.84121 17.6545 3.92859 18.1126 4.07806 18.4907C4.51518 19.5962 5.34904 20.4637 6.38514 20.9133C6.73463 21.0649 7.1608 21.1551 7.81769 21.2021C8.48204 21.2496 9.3244 21.25 10.5 21.25H11.2927C11.265 21.1718 11.25 21.0877 11.25 21ZM21.25 9.50001C21.25 8.53351 20.4665 7.75001 19.5 7.75001H12.75V11.25H19.5C20.4665 11.25 21.25 10.4665 21.25 9.50001Z" fill="#FAFAFA"/>
</svg>
