<svg width="24" height="24" viewBox="0 0 24 24" fill="none" xmlns="http://www.w3.org/2000/svg">
<path d="M16.7439 5.29891C16.3567 5.15177 15.9235 5.34638 15.7764 5.73358C15.6292 6.12077 15.8239 6.55394 16.2111 6.70108C16.5718 6.83815 16.9483 7.07039 17.3266 7.44544C17.8083 7.92307 18.1132 8.44657 18.2832 8.99773C18.4052 9.39355 18.8251 9.61548 19.2209 9.49342C19.6167 9.37136 19.8386 8.95154 19.7166 8.55572C19.4729 7.76567 19.037 7.02899 18.3827 6.38024C17.8664 5.86843 17.3146 5.5158 16.7439 5.29891Z" fill="#FAFAFA"/>
<path fill-rule="evenodd" clip-rule="evenodd" d="M10.8009 3.5126C9.91273 2.94917 8.69663 2.3634 7.34626 2.26454C5.95836 2.16294 4.48046 2.58176 3.1529 3.9356C1.58562 5.53389 1.0939 7.50691 1.29136 9.50268C1.48653 11.4754 2.35186 13.4809 3.50596 15.2579C4.66315 17.0396 6.14134 18.6393 7.6243 19.8008C9.07465 20.9368 10.6527 21.75 11.9999 21.75C13.347 21.75 14.9251 20.9368 16.3754 19.8008C17.8584 18.6393 19.3366 17.0396 20.4938 15.2579C21.6479 13.4809 22.5132 11.4754 22.7084 9.50268C22.9058 7.50692 22.4141 5.53389 20.8468 3.9356C19.5193 2.58178 18.0414 2.16296 16.6535 2.26456C15.3031 2.36341 14.087 2.94918 13.1988 3.5126C12.4984 3.95692 11.5014 3.95692 10.8009 3.5126ZM4.2239 4.98582C5.23053 3.95926 6.27121 3.68986 7.23674 3.76054C8.23981 3.83397 9.212 4.281 9.99745 4.77925C11.1884 5.5347 12.8114 5.5347 14.0023 4.77925C14.7878 4.28101 15.76 3.83398 16.763 3.76056C17.7286 3.68987 18.7692 3.95928 19.7758 4.98582C20.9791 6.21286 21.3774 7.7199 21.2157 9.355C21.0516 11.0131 20.3084 12.7893 19.2358 14.4408C18.1663 16.0876 16.7995 17.5633 15.4505 18.6199C14.0688 19.7021 12.8277 20.25 11.9999 20.25C11.172 20.25 9.9309 19.7021 8.54924 18.6199C7.20019 17.5633 5.83346 16.0876 4.76393 14.4408C3.69131 12.7893 2.94811 11.0131 2.78407 9.355C2.6223 7.7199 3.02067 6.21285 4.2239 4.98582Z" fill="#FAFAFA"/>
</svg>
