<svg width="24" height="24" viewBox="0 0 24 24" fill="none" xmlns="http://www.w3.org/2000/svg">
<path d="M17.971 1.75208C18.9784 1.74759 19.6705 1.74564 20.1977 1.80321C20.3691 1.82193 20.5123 1.84604 20.6339 1.87518L10.0054 12.5037C9.71253 12.7965 9.71253 13.2714 10.0054 13.5643C10.2983 13.8572 10.7732 13.8572 11.0661 13.5643L21.6946 2.93585C21.7237 3.05745 21.7478 3.20065 21.7665 3.37199C21.8241 3.89923 21.8221 4.59138 21.8177 5.59875L21.8066 8.08089C21.8047 8.4951 22.139 8.83238 22.5532 8.83423C22.9674 8.83607 23.3047 8.50179 23.3066 8.08758L23.3178 5.56074C23.3221 4.60902 23.3256 3.83119 23.2577 3.20915C23.187 2.56233 23.0314 1.98966 22.6501 1.49688C22.5675 1.3902 22.4785 1.28892 22.3834 1.19358C22.286 1.09581 22.1822 1.0043 22.0729 0.919649C21.5801 0.538287 21.0074 0.382717 20.3606 0.31208C19.7386 0.244151 18.9607 0.247636 18.009 0.251899L15.4822 0.263173C15.0679 0.265021 14.7337 0.602302 14.7355 1.01651C14.7374 1.43072 15.0746 1.76501 15.4888 1.76316L17.971 1.75208Z" fill="#FAFAFA"/>
<path d="M13.009 3.44199C12.4034 3.43473 11.7363 3.43473 11.0032 3.43473H10.9547C9.11821 3.43473 7.67861 3.43472 6.53648 3.55846C5.37094 3.68474 4.42656 3.94706 3.62024 4.53289C3.13209 4.88754 2.70281 5.31682 2.34815 5.80497C1.76232 6.61129 1.50001 7.55567 1.37373 8.72121C1.24999 9.86335 1.24999 11.3029 1.25 13.1395V13.23C1.24999 15.0665 1.24999 16.5061 1.37373 17.6483C1.50001 18.8138 1.76232 19.7582 2.34815 20.5645C2.70281 21.0526 3.13209 21.4819 3.62024 21.8366C4.42656 22.4224 5.37094 22.6847 6.53648 22.811C7.67859 22.9347 9.11817 22.9347 10.9547 22.9347H11.0453C12.8818 22.9347 14.3214 22.9347 15.4635 22.811C16.6291 22.6847 17.5734 22.4224 18.3798 21.8366C18.8679 21.4819 19.2972 21.0526 19.6518 20.5645C20.2377 19.7582 20.5 18.8138 20.6263 17.6483C20.75 16.5061 20.75 15.0666 20.75 13.2301V13.1813C20.75 12.4483 20.75 11.7813 20.7427 11.1757C20.7378 10.7616 20.398 10.4298 19.9838 10.4348C19.5696 10.4398 19.2379 10.7795 19.2428 11.1937C19.25 11.7895 19.25 12.448 19.25 13.1847C19.25 15.0763 19.249 16.4347 19.135 17.4867C19.0225 18.5246 18.8074 19.1748 18.4383 19.6828C18.1762 20.0436 17.8589 20.3609 17.4981 20.6231C16.9901 20.9921 16.3399 21.2073 15.302 21.3197C14.25 21.4337 12.8916 21.4347 11 21.4347C9.10843 21.4347 7.74999 21.4337 6.69804 21.3197C5.66013 21.2073 5.00992 20.9921 4.50191 20.6231C4.14111 20.3609 3.82382 20.0436 3.56168 19.6828C3.19259 19.1748 2.97745 18.5246 2.865 17.4867C2.75103 16.4347 2.75 15.0763 2.75 13.1847C2.75 11.2932 2.75103 9.93473 2.865 8.88278C2.97745 7.84487 3.19259 7.19465 3.56168 6.68665C3.82382 6.32584 4.14111 6.00855 4.50191 5.74641C5.00992 5.37733 5.66013 5.16219 6.69804 5.04974C7.74999 4.93576 9.10843 4.93473 11 4.93473C11.7367 4.93473 12.3952 4.93474 12.991 4.94189C13.4052 4.94685 13.745 4.61511 13.7499 4.20093C13.7549 3.78675 13.4232 3.44696 13.009 3.44199Z" fill="#FAFAFA"/>
</svg>
