<svg width="24" height="24" viewBox="0 0 24 24" fill="none" xmlns="http://www.w3.org/2000/svg">
<path fill-rule="evenodd" clip-rule="evenodd" d="M8.23248 4.17557L10.5005 3.3655C11.0703 3.16147 11.5208 3.00012 12 3.00012C12.4793 3.00012 12.9298 3.16147 13.4996 3.36551L15.7676 4.17557C17.9151 4.94254 19.603 5.54533 20.7481 6.13771C21.0248 6.28085 21.2917 6.4342 21.5363 6.60215C21.8408 6.81126 22.1109 7.04301 22.3227 7.30586C22.6212 7.67637 22.8039 8.10869 22.8039 8.62655C22.8039 8.66642 22.8027 8.70581 22.8006 8.74471C22.7703 9.29525 22.5289 9.74623 22.163 10.1284C22.0372 10.2606 21.8972 10.3838 21.7472 10.499C21.2453 10.8843 20.5657 11.2328 19.75 11.5818L19.75 13.7885C19.7503 15.4947 19.7504 16.5359 19.4686 17.4035C18.8998 19.154 17.5274 20.5264 15.7768 21.0952C14.9093 21.3771 13.8681 21.3769 12.1618 21.3766H11.8382C10.1319 21.3769 9.09067 21.3771 8.22315 21.0952C6.47263 20.5264 5.1002 19.154 4.53142 17.4035C4.24955 16.5359 4.24971 15.4947 4.24998 13.7885L4.24999 11.5806C3.88186 11.423 3.54872 11.2688 3.25201 11.1153C3.07983 11.0263 2.91148 10.9333 2.74993 10.8352V15.6265C2.74993 16.0407 2.41415 16.3765 1.99993 16.3765C1.58572 16.3765 1.19629 16.0524 1.19629 15.6382V8.6265C1.19629 7.44621 2.14511 6.71026 3.25195 6.13771C4.39712 5.54533 6.08494 4.94254 8.23248 4.17557ZM2.97464 9.14591C3.0122 9.18206 3.05461 9.21962 3.10247 9.25865C3.28839 9.41026 3.55646 9.584 3.94113 9.78298C4.98519 10.3231 6.57621 10.8931 8.79954 11.6872L10.9069 12.4398C11.622 12.6952 11.8135 12.7529 12 12.7529C12.1865 12.7529 12.3781 12.6952 13.0931 12.4398L15.2005 11.6872C17.4239 10.8931 19.0149 10.3231 20.059 9.78298C21.1524 9.21733 21.3038 8.85564 21.3038 8.6265C21.3038 8.5249 21.274 8.39724 21.1456 8.2373C21.0387 8.10416 20.8634 7.94864 20.5799 7.76715C20.4359 7.67498 20.264 7.57611 20.059 7.47007C19.0149 6.92999 17.4239 6.35995 15.2006 5.5659L13.0932 4.81325C12.3782 4.55787 12.1866 4.50018 12.0001 4.50018C11.8136 4.50018 11.622 4.55787 10.907 4.81325L8.7996 5.5659C6.57627 6.35995 4.98525 6.92999 3.94119 7.47007C2.84769 8.03572 2.69635 8.39741 2.69635 8.62655L2.69635 8.62793L2.69816 8.66933C2.70864 8.79139 2.76833 8.94732 2.97464 9.14591ZM5.74999 13.6266V12.1768C6.49023 12.4552 7.31986 12.7515 8.23252 13.0775L10.5005 13.8875C11.0703 14.0916 11.5209 14.2529 12.0001 14.2529C12.4793 14.2529 12.9299 14.0916 13.4997 13.8875L15.7993 13.0662C16.7035 12.7433 17.5226 12.4507 18.25 12.1775V13.6266C18.25 15.5463 18.2407 16.3282 18.042 16.9399C17.6216 18.2338 16.6072 19.2482 15.3133 19.6686C14.7016 19.8674 13.9197 19.8766 12 19.8766C10.0803 19.8766 9.29838 19.8674 8.68667 19.6686C7.39281 19.2482 6.37841 18.2338 5.958 16.9399C5.75925 16.3282 5.74999 15.5463 5.74999 13.6266Z" fill="#FAFAFA"/>
</svg>
