<svg width="24" height="24" viewBox="0 0 24 24" fill="none" xmlns="http://www.w3.org/2000/svg">
<path fill-rule="evenodd" clip-rule="evenodd" d="M1.72754 1.81808C1.62707 1.41624 1.21986 1.17193 0.818015 1.2724C0.416171 1.37287 0.17186 1.78008 0.272331 2.18192L1.32418 6.38889L2.30298 10.4729C2.71918 12.2095 3.04677 13.5764 3.43552 14.6383C3.83428 15.7275 4.32329 16.5731 5.10786 17.2216C5.17557 17.2776 5.24455 17.332 5.31476 17.3848C6.12821 17.9966 7.06452 18.275 8.21672 18.4089C9.33994 18.5395 10.7455 18.5395 12.5312 18.5395H13.1248C14.6698 18.5395 15.886 18.5395 16.8658 18.4404C17.8694 18.3389 18.6952 18.1283 19.4383 17.663C19.7908 17.4423 20.1183 17.184 20.4151 16.8927C21.1139 16.2067 21.5285 15.3453 21.8854 14.2283C22.1479 13.4067 22.3925 12.4015 22.6867 11.1749L22.7598 10.87C22.9769 9.96409 23.1559 9.21743 23.2251 8.61254C23.2968 7.98475 23.2675 7.38698 22.9542 6.8412C22.8201 6.60776 22.6525 6.39527 22.4568 6.21052C21.9991 5.77856 21.4246 5.61077 20.7973 5.53423C20.193 5.46049 19.4252 5.4605 18.4936 5.46053L2.63824 5.46053L1.72754 1.81808ZM3.75057 10.0769L3.00366 6.96053H18.4449C19.4374 6.96053 20.113 6.96185 20.6157 7.02319C21.106 7.08301 21.307 7.18794 21.4273 7.30143C21.5162 7.38541 21.5924 7.482 21.6533 7.5881C21.7357 7.7315 21.7909 7.95145 21.7348 8.44219C21.6838 8.88807 21.5554 9.455 21.3658 10.25L14 10.25C13.5858 10.25 13.25 10.5858 13.25 11C13.25 11.4142 13.5858 11.75 14 11.75L21.0044 11.75C20.8654 12.3166 20.7387 12.8117 20.6137 13.25H17C16.5858 13.25 16.25 13.5858 16.25 14C16.25 14.4142 16.5858 14.75 17 14.75H20.0868C19.8738 15.2127 19.6437 15.548 19.3643 15.8223C19.1449 16.0376 18.9028 16.2285 18.6423 16.3917C18.1682 16.6885 17.5954 16.859 16.7149 16.948C15.8193 17.0386 14.6787 17.0395 13.0837 17.0395H12.579C10.7351 17.0395 9.41655 17.0383 8.38989 16.919C7.3822 16.8019 6.73794 16.5783 6.21639 16.186C6.16451 16.147 6.11352 16.1067 6.06347 16.0654C5.56045 15.6496 5.19285 15.0752 4.8441 14.1226C4.48878 13.152 4.18031 11.87 3.75057 10.0769Z" fill="#FAFAFA"/>
<path d="M10.4737 20.9474C10.4737 21.5287 10.0024 22 9.42107 22C8.83972 22 8.36844 21.5287 8.36844 20.9474C8.36844 20.366 8.83972 19.8947 9.42107 19.8947C10.0024 19.8947 10.4737 20.366 10.4737 20.9474Z" fill="#FAFAFA"/>
<path d="M16.7895 20.9474C16.7895 21.5287 16.3182 22 15.7369 22C15.1555 22 14.6842 21.5287 14.6842 20.9474C14.6842 20.366 15.1555 19.8947 15.7369 19.8947C16.3182 19.8947 16.7895 20.366 16.7895 20.9474Z" fill="#FAFAFA"/>
</svg>
